<mxfile host="app.diagrams.net" modified="2022-07-28T14:14:45.518Z" agent="5.0 (Windows NT 10.0; Win64; x64) AppleWebKit/537.36 (KHTML, like Gecko) Chrome/103.0.0.0 Safari/537.36" etag="mGmFtSM7YqqrZlINuJah" version="18.1.3" type="github">
  <diagram id="8THgh1993p_qFFKbUgI1" name="Page-1">
    <mxGraphModel dx="1268" dy="578" grid="0" gridSize="10" guides="1" tooltips="1" connect="1" arrows="1" fold="1" page="1" pageScale="1" pageWidth="1169" pageHeight="827" math="0" shadow="0">
      <root>
        <mxCell id="0" />
        <mxCell id="1" parent="0" />
        <mxCell id="9bGQJk6UjqtO-O7qmskz-39" value="" style="rounded=0;whiteSpace=wrap;html=1;fontSize=16;fillColor=#f5f5f5;dashed=1;fontColor=#333333;strokeColor=#666666;shadow=0;glass=0;" parent="1" vertex="1">
          <mxGeometry x="31" y="91" width="1068.5" height="60" as="geometry" />
        </mxCell>
        <mxCell id="9bGQJk6UjqtO-O7qmskz-40" value="" style="rounded=0;whiteSpace=wrap;html=1;fontSize=16;fillColor=#f5f5f5;dashed=1;fontColor=#333333;strokeColor=#666666;shadow=0;glass=0;" parent="1" vertex="1">
          <mxGeometry x="32" y="176" width="1067.5" height="65" as="geometry" />
        </mxCell>
        <mxCell id="9bGQJk6UjqtO-O7qmskz-43" value="" style="rounded=0;whiteSpace=wrap;html=1;fontSize=16;fillColor=#f5f5f5;dashed=1;fontColor=#333333;strokeColor=#666666;shadow=0;glass=0;" parent="1" vertex="1">
          <mxGeometry x="33" y="274" width="1066.5" height="193" as="geometry" />
        </mxCell>
        <mxCell id="9bGQJk6UjqtO-O7qmskz-32" style="edgeStyle=orthogonalEdgeStyle;rounded=0;orthogonalLoop=1;jettySize=auto;html=1;fontSize=16;fontStyle=1" parent="1" source="Pf5V_EaTy1pR2mmkg9B6-1" target="9bGQJk6UjqtO-O7qmskz-3" edge="1">
          <mxGeometry relative="1" as="geometry" />
        </mxCell>
        <mxCell id="9bGQJk6UjqtO-O7qmskz-33" style="edgeStyle=orthogonalEdgeStyle;rounded=0;orthogonalLoop=1;jettySize=auto;html=1;entryX=0.5;entryY=0;entryDx=0;entryDy=0;fontSize=16;exitX=0.5;exitY=1;exitDx=0;exitDy=0;fontStyle=1" parent="1" source="Pf5V_EaTy1pR2mmkg9B6-1" target="9bGQJk6UjqtO-O7qmskz-4" edge="1">
          <mxGeometry relative="1" as="geometry" />
        </mxCell>
        <mxCell id="9bGQJk6UjqtO-O7qmskz-36" style="edgeStyle=orthogonalEdgeStyle;rounded=0;orthogonalLoop=1;jettySize=auto;html=1;entryX=0.5;entryY=0;entryDx=0;entryDy=0;fontSize=16;exitX=0.5;exitY=1;exitDx=0;exitDy=0;fontStyle=1" parent="1" source="Pf5V_EaTy1pR2mmkg9B6-1" target="9bGQJk6UjqtO-O7qmskz-5" edge="1">
          <mxGeometry relative="1" as="geometry" />
        </mxCell>
        <mxCell id="9bGQJk6UjqtO-O7qmskz-37" style="edgeStyle=orthogonalEdgeStyle;rounded=0;orthogonalLoop=1;jettySize=auto;html=1;entryX=0.5;entryY=0;entryDx=0;entryDy=0;fontSize=16;exitX=0.5;exitY=1;exitDx=0;exitDy=0;fontStyle=1" parent="1" source="Pf5V_EaTy1pR2mmkg9B6-1" target="9bGQJk6UjqtO-O7qmskz-2" edge="1">
          <mxGeometry relative="1" as="geometry" />
        </mxCell>
        <mxCell id="9bGQJk6UjqtO-O7qmskz-38" style="edgeStyle=orthogonalEdgeStyle;rounded=0;orthogonalLoop=1;jettySize=auto;html=1;entryX=0.5;entryY=0;entryDx=0;entryDy=0;fontSize=16;exitX=0.5;exitY=1;exitDx=0;exitDy=0;fontStyle=1" parent="1" source="Pf5V_EaTy1pR2mmkg9B6-1" target="9bGQJk6UjqtO-O7qmskz-1" edge="1">
          <mxGeometry relative="1" as="geometry" />
        </mxCell>
        <mxCell id="Pf5V_EaTy1pR2mmkg9B6-1" value="&lt;font style=&quot;font-size: 16px;&quot;&gt;W公司敏捷管理流程问题&lt;/font&gt;" style="rounded=1;whiteSpace=wrap;html=1;fillColor=#dae8fc;strokeColor=#6c8ebf;fontStyle=1" parent="1" vertex="1">
          <mxGeometry x="525" y="101" width="200" height="40" as="geometry" />
        </mxCell>
        <mxCell id="9bGQJk6UjqtO-O7qmskz-20" style="edgeStyle=orthogonalEdgeStyle;rounded=0;orthogonalLoop=1;jettySize=auto;html=1;exitX=0.5;exitY=1;exitDx=0;exitDy=0;entryX=0.5;entryY=0;entryDx=0;entryDy=0;fontSize=16;fontStyle=1" parent="1" source="9bGQJk6UjqtO-O7qmskz-1" target="9bGQJk6UjqtO-O7qmskz-9" edge="1">
          <mxGeometry relative="1" as="geometry" />
        </mxCell>
        <mxCell id="9bGQJk6UjqtO-O7qmskz-22" style="edgeStyle=orthogonalEdgeStyle;rounded=0;orthogonalLoop=1;jettySize=auto;html=1;entryX=0.5;entryY=0;entryDx=0;entryDy=0;fontSize=16;fontStyle=1" parent="1" source="9bGQJk6UjqtO-O7qmskz-1" target="9bGQJk6UjqtO-O7qmskz-10" edge="1">
          <mxGeometry relative="1" as="geometry" />
        </mxCell>
        <mxCell id="9bGQJk6UjqtO-O7qmskz-1" value="&lt;span style=&quot;font-size: 16px;&quot;&gt;架构层&lt;/span&gt;" style="rounded=1;whiteSpace=wrap;html=1;fillColor=#fff2cc;strokeColor=#d6b656;fontStyle=1" parent="1" vertex="1">
          <mxGeometry x="175" y="191" width="130" height="40" as="geometry" />
        </mxCell>
        <mxCell id="9bGQJk6UjqtO-O7qmskz-23" style="edgeStyle=orthogonalEdgeStyle;rounded=0;orthogonalLoop=1;jettySize=auto;html=1;entryX=0.5;entryY=0;entryDx=0;entryDy=0;fontSize=16;fontStyle=1" parent="1" source="9bGQJk6UjqtO-O7qmskz-2" target="9bGQJk6UjqtO-O7qmskz-12" edge="1">
          <mxGeometry relative="1" as="geometry" />
        </mxCell>
        <mxCell id="9bGQJk6UjqtO-O7qmskz-24" style="edgeStyle=orthogonalEdgeStyle;rounded=0;orthogonalLoop=1;jettySize=auto;html=1;entryX=0.5;entryY=0;entryDx=0;entryDy=0;fontSize=16;fontStyle=1" parent="1" source="9bGQJk6UjqtO-O7qmskz-2" target="9bGQJk6UjqtO-O7qmskz-11" edge="1">
          <mxGeometry relative="1" as="geometry" />
        </mxCell>
        <mxCell id="9bGQJk6UjqtO-O7qmskz-25" style="edgeStyle=orthogonalEdgeStyle;rounded=0;orthogonalLoop=1;jettySize=auto;html=1;entryX=0.5;entryY=0;entryDx=0;entryDy=0;fontSize=16;fontStyle=1" parent="1" source="9bGQJk6UjqtO-O7qmskz-2" target="9bGQJk6UjqtO-O7qmskz-13" edge="1">
          <mxGeometry relative="1" as="geometry" />
        </mxCell>
        <mxCell id="9bGQJk6UjqtO-O7qmskz-2" value="&lt;span style=&quot;font-size: 16px;&quot;&gt;需求管理层&lt;/span&gt;" style="rounded=1;whiteSpace=wrap;html=1;fillColor=#fff2cc;strokeColor=#d6b656;fontStyle=1" parent="1" vertex="1">
          <mxGeometry x="365" y="191" width="130" height="40" as="geometry" />
        </mxCell>
        <mxCell id="9bGQJk6UjqtO-O7qmskz-26" style="edgeStyle=orthogonalEdgeStyle;rounded=0;orthogonalLoop=1;jettySize=auto;html=1;entryX=0.5;entryY=0;entryDx=0;entryDy=0;fontSize=16;fontStyle=1" parent="1" source="9bGQJk6UjqtO-O7qmskz-3" target="9bGQJk6UjqtO-O7qmskz-14" edge="1">
          <mxGeometry relative="1" as="geometry" />
        </mxCell>
        <mxCell id="9bGQJk6UjqtO-O7qmskz-27" style="edgeStyle=orthogonalEdgeStyle;rounded=0;orthogonalLoop=1;jettySize=auto;html=1;entryX=0.5;entryY=0;entryDx=0;entryDy=0;fontSize=16;fontStyle=1" parent="1" source="9bGQJk6UjqtO-O7qmskz-3" target="9bGQJk6UjqtO-O7qmskz-15" edge="1">
          <mxGeometry relative="1" as="geometry" />
        </mxCell>
        <mxCell id="9bGQJk6UjqtO-O7qmskz-3" value="&lt;span style=&quot;font-size: 16px;&quot;&gt;协作配合层&lt;/span&gt;" style="rounded=1;whiteSpace=wrap;html=1;fillColor=#fff2cc;strokeColor=#d6b656;fontStyle=1" parent="1" vertex="1">
          <mxGeometry x="560" y="191" width="130" height="40" as="geometry" />
        </mxCell>
        <mxCell id="9bGQJk6UjqtO-O7qmskz-28" style="edgeStyle=orthogonalEdgeStyle;rounded=0;orthogonalLoop=1;jettySize=auto;html=1;entryX=0.5;entryY=0;entryDx=0;entryDy=0;fontSize=16;fontStyle=1" parent="1" source="9bGQJk6UjqtO-O7qmskz-4" target="9bGQJk6UjqtO-O7qmskz-16" edge="1">
          <mxGeometry relative="1" as="geometry" />
        </mxCell>
        <mxCell id="9bGQJk6UjqtO-O7qmskz-4" value="&lt;span style=&quot;font-size: 16px;&quot;&gt;研发流程层&lt;/span&gt;" style="rounded=1;whiteSpace=wrap;html=1;fillColor=#fff2cc;strokeColor=#d6b656;fontStyle=1" parent="1" vertex="1">
          <mxGeometry x="755" y="191" width="130" height="40" as="geometry" />
        </mxCell>
        <mxCell id="9bGQJk6UjqtO-O7qmskz-30" style="edgeStyle=orthogonalEdgeStyle;rounded=0;orthogonalLoop=1;jettySize=auto;html=1;entryX=0.5;entryY=0;entryDx=0;entryDy=0;fontSize=16;fontStyle=1" parent="1" source="9bGQJk6UjqtO-O7qmskz-5" target="9bGQJk6UjqtO-O7qmskz-17" edge="1">
          <mxGeometry relative="1" as="geometry" />
        </mxCell>
        <mxCell id="9bGQJk6UjqtO-O7qmskz-31" style="edgeStyle=orthogonalEdgeStyle;rounded=0;orthogonalLoop=1;jettySize=auto;html=1;entryX=0.5;entryY=0;entryDx=0;entryDy=0;fontSize=16;fontStyle=1" parent="1" source="9bGQJk6UjqtO-O7qmskz-5" target="9bGQJk6UjqtO-O7qmskz-18" edge="1">
          <mxGeometry relative="1" as="geometry" />
        </mxCell>
        <mxCell id="9bGQJk6UjqtO-O7qmskz-5" value="&lt;span style=&quot;font-size: 16px;&quot;&gt;业务成熟度层&lt;/span&gt;" style="rounded=1;whiteSpace=wrap;html=1;fillColor=#fff2cc;strokeColor=#d6b656;fontStyle=1" parent="1" vertex="1">
          <mxGeometry x="952" y="191" width="130" height="40" as="geometry" />
        </mxCell>
        <mxCell id="9bGQJk6UjqtO-O7qmskz-9" value="&lt;span style=&quot;font-size: 16px;&quot;&gt;人员职能&lt;/span&gt;" style="rounded=1;whiteSpace=wrap;html=1;fillColor=#d5e8d4;strokeColor=#82b366;fontStyle=1" parent="1" vertex="1">
          <mxGeometry x="175" y="291" width="50" height="160" as="geometry" />
        </mxCell>
        <mxCell id="9bGQJk6UjqtO-O7qmskz-10" value="&lt;span style=&quot;font-size: 16px;&quot;&gt;组织架构&lt;/span&gt;" style="rounded=1;whiteSpace=wrap;html=1;fillColor=#d5e8d4;strokeColor=#82b366;fontStyle=1" parent="1" vertex="1">
          <mxGeometry x="255" y="291" width="50" height="160" as="geometry" />
        </mxCell>
        <mxCell id="9bGQJk6UjqtO-O7qmskz-11" value="&lt;span style=&quot;font-size: 16px;&quot;&gt;需求变更问题&lt;/span&gt;" style="rounded=1;whiteSpace=wrap;html=1;fillColor=#d5e8d4;strokeColor=#82b366;fontStyle=1" parent="1" vertex="1">
          <mxGeometry x="335" y="291" width="50" height="160" as="geometry" />
        </mxCell>
        <mxCell id="9bGQJk6UjqtO-O7qmskz-12" value="&lt;span style=&quot;font-size: 16px;&quot;&gt;需求可视化&lt;/span&gt;" style="rounded=1;whiteSpace=wrap;html=1;fillColor=#d5e8d4;strokeColor=#82b366;fontStyle=1" parent="1" vertex="1">
          <mxGeometry x="405" y="291" width="50" height="160" as="geometry" />
        </mxCell>
        <mxCell id="9bGQJk6UjqtO-O7qmskz-13" value="&lt;span style=&quot;font-size: 16px;&quot;&gt;质量控制体系&lt;/span&gt;" style="rounded=1;whiteSpace=wrap;html=1;fillColor=#d5e8d4;strokeColor=#82b366;fontStyle=1" parent="1" vertex="1">
          <mxGeometry x="475" y="291" width="50" height="160" as="geometry" />
        </mxCell>
        <mxCell id="9bGQJk6UjqtO-O7qmskz-14" value="&lt;span style=&quot;font-size: 16px;&quot;&gt;沟通&lt;/span&gt;" style="rounded=1;whiteSpace=wrap;html=1;fillColor=#d5e8d4;strokeColor=#82b366;fontStyle=1" parent="1" vertex="1">
          <mxGeometry x="560" y="291" width="50" height="160" as="geometry" />
        </mxCell>
        <mxCell id="9bGQJk6UjqtO-O7qmskz-15" value="&lt;span style=&quot;font-size: 16px;&quot;&gt;领导力&lt;/span&gt;" style="rounded=1;whiteSpace=wrap;html=1;fillColor=#d5e8d4;strokeColor=#82b366;fontStyle=1" parent="1" vertex="1">
          <mxGeometry x="640" y="291" width="50" height="160" as="geometry" />
        </mxCell>
        <mxCell id="9bGQJk6UjqtO-O7qmskz-16" value="&lt;span style=&quot;font-size: 16px;&quot;&gt;Scrum流程认可&lt;br&gt;&lt;/span&gt;" style="rounded=1;whiteSpace=wrap;html=1;fillColor=#d5e8d4;strokeColor=#82b366;fontStyle=1" parent="1" vertex="1">
          <mxGeometry x="795" y="291" width="50" height="160" as="geometry" />
        </mxCell>
        <mxCell id="9bGQJk6UjqtO-O7qmskz-17" value="&lt;span style=&quot;font-size: 16px;&quot;&gt;业务复杂度&lt;/span&gt;" style="rounded=1;whiteSpace=wrap;html=1;fillColor=#d5e8d4;strokeColor=#82b366;fontStyle=1" parent="1" vertex="1">
          <mxGeometry x="952" y="291" width="50" height="160" as="geometry" />
        </mxCell>
        <mxCell id="9bGQJk6UjqtO-O7qmskz-18" value="&lt;span style=&quot;font-size: 16px;&quot;&gt;人员离职&lt;/span&gt;" style="rounded=1;whiteSpace=wrap;html=1;fillColor=#d5e8d4;strokeColor=#82b366;fontStyle=1" parent="1" vertex="1">
          <mxGeometry x="1032" y="291" width="50" height="160" as="geometry" />
        </mxCell>
        <mxCell id="9bGQJk6UjqtO-O7qmskz-44" value="&lt;font style=&quot;font-size: 25px;&quot;&gt;&lt;b style=&quot;font-size: 25px;&quot;&gt;目标层&lt;/b&gt;&lt;/font&gt;" style="text;html=1;resizable=0;autosize=1;align=center;verticalAlign=middle;points=[];fillColor=none;strokeColor=none;rounded=0;shadow=0;glass=0;dashed=1;fontSize=25;" parent="1" vertex="1">
          <mxGeometry x="46" y="102" width="85" height="34" as="geometry" />
        </mxCell>
        <mxCell id="9bGQJk6UjqtO-O7qmskz-46" value="&lt;font style=&quot;font-size: 25px;&quot;&gt;&lt;b style=&quot;font-size: 25px;&quot;&gt;准则层&lt;/b&gt;&lt;/font&gt;" style="text;html=1;resizable=0;autosize=1;align=center;verticalAlign=middle;points=[];fillColor=none;strokeColor=none;rounded=0;shadow=0;glass=0;dashed=1;fontSize=25;" parent="1" vertex="1">
          <mxGeometry x="46" y="196" width="85" height="34" as="geometry" />
        </mxCell>
        <mxCell id="9bGQJk6UjqtO-O7qmskz-47" value="&lt;font style=&quot;font-size: 25px;&quot;&gt;&lt;b style=&quot;font-size: 25px;&quot;&gt;方案层&lt;/b&gt;&lt;/font&gt;" style="text;html=1;resizable=0;autosize=1;align=center;verticalAlign=middle;points=[];fillColor=none;strokeColor=none;rounded=0;shadow=0;glass=0;dashed=1;fontSize=25;" parent="1" vertex="1">
          <mxGeometry x="46" y="350" width="85" height="34" as="geometry" />
        </mxCell>
      </root>
    </mxGraphModel>
  </diagram>
</mxfile>
